<?xml version="1.0" encoding="UTF-8"?>
<!DOCTYPE svg PUBLIC "-//W3C//DTD SVG 1.1//EN" "http://www.w3.org/Graphics/SVG/1.1/DTD/svg11.dtd">
<svg xmlns="http://www.w3.org/2000/svg" version="1.1" width="337px" height="100px" style="shape-rendering:geometricPrecision; text-rendering:geometricPrecision; image-rendering:optimizeQuality; fill-rule:evenodd; clip-rule:evenodd" xmlns:xlink="http://www.w3.org/1999/xlink">
<g><path style="opacity:0.153" fill="#7c7c7c" d="M 60.5,12.5 C 59.5416,12.0472 58.7083,11.3805 58,10.5C 57.5045,12.4727 57.3379,14.4727 57.5,16.5C 56.3709,14.3718 56.2042,12.0385 57,9.5C 59.3065,8.60972 60.4732,9.60972 60.5,12.5 Z"/></g>
<g><path style="opacity:0.467" fill="#5f6159" d="M 75.5,24.5 C 71.6339,24.5437 68.3006,23.2103 65.5,20.5C 65.6236,19.8933 65.9569,19.56 66.5,19.5C 67.2161,19.7831 68.0494,20.1164 69,20.5C 72.3101,14.9782 71.4768,14.3116 66.5,18.5C 66.0623,17.4937 65.3957,17.4937 64.5,18.5C 64.5106,16.9826 65.1772,15.8159 66.5,15C 69.2864,12.7234 72.2864,11.8901 75.5,12.5C 74.4853,16.0303 72.8186,19.1969 70.5,22C 72.3146,22.7568 73.9812,23.5902 75.5,24.5 Z"/></g>
<g><path style="opacity:1" fill="#adc35b" d="M 66.5,19.5 C 66.5,19.1667 66.5,18.8333 66.5,18.5C 71.4768,14.3116 72.3101,14.9782 69,20.5C 68.0494,20.1164 67.2161,19.7831 66.5,19.5 Z"/></g>
<g><path style="opacity:0.999" fill="#474542" d="M 60.5,12.5 C 61.6676,15.1779 62.8343,17.8446 64,20.5C 64.4643,19.9056 64.631,19.2389 64.5,18.5C 65.3957,17.4937 66.0623,17.4937 66.5,18.5C 66.5,18.8333 66.5,19.1667 66.5,19.5C 65.9569,19.56 65.6236,19.8933 65.5,20.5C 68.3006,23.2103 71.6339,24.5437 75.5,24.5C 77.9032,24.393 79.7365,25.393 81,27.5C 82.9078,30.2154 84.2411,33.2154 85,36.5C 86.4941,45.4412 87.3275,54.4412 87.5,63.5C 87.5,64.1667 87.1667,64.5 86.5,64.5C 84.6322,63.3264 83.6322,63.9931 83.5,66.5C 83.1667,66.5 82.8333,66.5 82.5,66.5C 75.7028,68.9491 68.7028,70.6158 61.5,71.5C 60.448,71.6495 59.448,71.4828 58.5,71C 66.0982,69.934 73.4316,67.934 80.5,65C 83.4191,63.4573 83.7524,61.9573 81.5,60.5C 82.6586,57.7473 82.1586,55.0806 80,52.5C 77.8074,52.0826 75.6408,51.7493 73.5,51.5C 72.0048,51.0113 70.6715,50.3446 69.5,49.5C 70.552,49.6495 71.552,49.4828 72.5,49C 68.874,43.6836 70.2073,41.1836 76.5,41.5C 76.8821,44.7755 78.2155,44.7755 80.5,41.5C 80.0944,35.6735 77.4277,31.3401 72.5,28.5C 68.8333,30.3333 65.1667,32.1667 61.5,34C 62.1667,34.3333 62.8333,34.6667 63.5,35C 62.5,36 61.5,37 60.5,38C 61.7911,39.2917 61.7911,40.4583 60.5,41.5C 59.7784,41.9175 59.2784,42.5842 59,43.5C 58.0228,42.2264 57.1894,42.2264 56.5,43.5C 54.1644,45.0038 52.331,47.0038 51,49.5C 50.6667,47.5 50.3333,45.5 50,43.5C 47.759,46.8447 47.0924,50.5113 48,54.5C 48.6667,53.1667 49.3333,51.8333 50,50.5C 51.2166,52.6124 52.3832,52.2791 53.5,49.5C 54.1667,49.8333 54.8333,50.1667 55.5,50.5C 56.4387,51.3274 56.1054,51.9941 54.5,52.5C 53.2486,53.472 53.582,54.1386 55.5,54.5C 56.4164,54.4573 57.0831,54.1239 57.5,53.5C 58.1614,54.7175 58.8281,56.0508 59.5,57.5C 60.1835,57.1373 60.8501,56.8039 61.5,56.5C 59.336,60.7031 58.0027,60.3697 57.5,55.5C 55.1789,55.7711 53.1789,55.1045 51.5,53.5C 49.8888,54.3202 49.2222,55.6536 49.5,57.5C 51.3797,57.2291 52.713,57.8958 53.5,59.5C 50.9039,58.7347 48.2372,58.4013 45.5,58.5C 43.8333,58.5 42.1667,58.5 40.5,58.5C 39.6993,56.9582 39.366,55.2915 39.5,53.5C 43.3765,53.4825 44.0432,54.6492 41.5,57C 42.7932,57.49 44.1266,57.6567 45.5,57.5C 45.4511,54.6257 45.7844,51.7923 46.5,49C 46.3158,47.6244 45.6491,46.7911 44.5,46.5C 46.0311,45.0755 45.6977,44.4088 43.5,44.5C 43.5,44.1667 43.5,43.8333 43.5,43.5C 43.9377,42.4937 44.6043,42.4937 45.5,43.5C 47.7099,43.106 49.0432,41.7727 49.5,39.5C 50.1174,39.3893 50.6174,39.056 51,38.5C 51.3333,40.1667 51.6667,41.8333 52,43.5C 53.1255,39.0929 54.9588,35.0929 57.5,31.5C 57.8064,28.6146 57.4731,25.9479 56.5,23.5C 56.1788,21.9519 55.1788,21.2852 53.5,21.5C 53.44,20.9569 53.1067,20.6236 52.5,20.5C 51.1861,21.3128 50.0195,22.3128 49,23.5C 48.2303,22.4019 47.397,22.4019 46.5,23.5C 41.6946,22.5128 36.6946,22.1795 31.5,22.5C 34.5629,21.7986 37.7296,21.132 41,20.5C 41.7247,21.0585 42.5581,21.3918 43.5,21.5C 47.8761,19.2706 52.3761,18.604 57,19.5C 57.4828,18.552 57.6495,17.552 57.5,16.5C 57.3379,14.4727 57.5045,12.4727 58,10.5C 58.7083,11.3805 59.5416,12.0472 60.5,12.5 Z M 69.5,49.5 C 65.1238,50.1124 64.4571,48.9457 67.5,46C 65.5734,43.4341 63.2401,42.9341 60.5,44.5C 60.5,43.5 60.5,42.5 60.5,41.5C 61.7911,40.4583 61.7911,39.2917 60.5,38C 61.5,37 62.5,36 63.5,35C 62.8333,34.6667 62.1667,34.3333 61.5,34C 65.1667,32.1667 68.8333,30.3333 72.5,28.5C 77.4277,31.3401 80.0944,35.6735 80.5,41.5C 78.2155,44.7755 76.8821,44.7755 76.5,41.5C 70.2073,41.1836 68.874,43.6836 72.5,49C 71.552,49.4828 70.552,49.6495 69.5,49.5 Z M 80.5,48.5 C 81.7733,49.0768 81.7733,49.7435 80.5,50.5C 79.537,50.0302 79.537,49.3635 80.5,48.5 Z"/></g>
<g><path style="opacity:1" fill="#7a874b" d="M 58.5,13.5 C 60.4309,15.7942 61.2643,18.4609 61,21.5C 59.5544,19.0585 58.7211,16.3919 58.5,13.5 Z"/></g>
<g><path style="opacity:1" fill="#b7cf5f" d="M 53.5,21.5 C 55.1788,21.2852 56.1788,21.9519 56.5,23.5C 56.7845,25.4147 56.4511,27.0813 55.5,28.5C 54.5448,26.2543 53.8782,23.921 53.5,21.5 Z"/></g>
<g><path style="opacity:1" fill="#6b7545" d="M 56.5,23.5 C 57.4731,25.9479 57.8064,28.6146 57.5,31.5C 55.9519,31.1788 55.2852,30.1788 55.5,28.5C 56.4511,27.0813 56.7845,25.4147 56.5,23.5 Z"/></g>
<g><path style="opacity:1" fill="#d6d6d6" d="M 58.5,25.5 C 60.6456,25.6964 60.8122,26.6964 59,28.5C 58.5172,27.552 58.3505,26.552 58.5,25.5 Z"/></g>
<g><path style="opacity:1" fill="#bdbdbd" d="M 62.5,25.5 C 63.675,25.281 64.675,25.6143 65.5,26.5C 63.1421,28.0243 61.3088,30.0243 60,32.5C 60.2204,30.0369 61.0538,27.7035 62.5,25.5 Z"/></g>
<g><path style="opacity:1" fill="#a7bc5a" d="M 69.5,25.5 C 70.7736,26.1894 70.7736,27.0228 69.5,28C 67.788,29.7509 65.788,30.4175 63.5,30C 65.6838,28.6366 67.6838,27.1366 69.5,25.5 Z"/></g>
<g><path style="opacity:1" fill="#acc15b" d="M 53.5,21.5 C 50.4429,25.2576 47.6096,29.2576 45,33.5C 44.7488,30.4057 45.2488,27.4057 46.5,24.5C 46.5,24.1667 46.5,23.8333 46.5,23.5C 47.397,22.4019 48.2303,22.4019 49,23.5C 50.0195,22.3128 51.1861,21.3128 52.5,20.5C 53.1067,20.6236 53.44,20.9569 53.5,21.5 Z"/></g>
<g><path style="opacity:0.949" fill="#555651" d="M 53.5,21.5 C 53.8782,23.921 54.5448,26.2543 55.5,28.5C 55.2852,30.1788 55.9519,31.1788 57.5,31.5C 54.9588,35.0929 53.1255,39.0929 52,43.5C 51.6667,41.8333 51.3333,40.1667 51,38.5C 50.6174,39.056 50.1174,39.3893 49.5,39.5C 49.5774,38.2502 50.244,37.4169 51.5,37C 50.0325,35.9025 49.1992,34.4025 49,32.5C 47.3163,34.3513 45.4829,36.018 43.5,37.5C 42.6731,33.6084 43.0065,29.7751 44.5,26C 43.552,25.5172 42.552,25.3505 41.5,25.5C 42.9187,24.5489 44.5853,24.2155 46.5,24.5C 45.2488,27.4057 44.7488,30.4057 45,33.5C 47.6096,29.2576 50.4429,25.2576 53.5,21.5 Z"/></g>
<g><path style="opacity:1" fill="#b2c95d" d="M 50.5,31.5 C 52.6086,32.0524 53.4419,33.3858 53,35.5C 51.5187,34.5291 50.6854,33.1958 50.5,31.5 Z"/></g>
<g><path style="opacity:0.545" fill="#53534d" d="M 40.5,25.5 C 36.8285,26.0982 33.1619,27.0982 29.5,28.5C 31.2533,31.0048 32.7533,33.6714 34,36.5C 34.977,34.26 35.477,31.9267 35.5,29.5C 36.5,29.5 37.5,29.5 38.5,29.5C 38.6159,32.8599 38.9492,36.1933 39.5,39.5C 42.6082,39.3746 44.6082,40.7079 45.5,43.5C 44.6043,42.4937 43.9377,42.4937 43.5,43.5C 41.8583,41.9192 39.8583,41.2525 37.5,41.5C 37.9662,43.2012 37.9662,44.7012 37.5,46C 38.0944,46.4643 38.7611,46.631 39.5,46.5C 37.8333,48.8333 35.8333,50.8333 33.5,52.5C 33.5,52.8333 33.5,53.1667 33.5,53.5C 32.391,53.5569 31.391,53.8902 30.5,54.5C 31.8333,47.5 31.8333,40.5 30.5,33.5C 30.44,32.9569 30.1067,32.6236 29.5,32.5C 28.6816,35.1071 28.1816,37.7737 28,40.5C 27.6232,39.0577 26.7899,38.0577 25.5,37.5C 23.8712,36.3747 22.3712,35.0414 21,33.5C 20.6155,35.1966 20.7822,36.8632 21.5,38.5C 19.847,38.3404 18.5137,37.6737 17.5,36.5C 18.4602,34.5393 19.7935,32.8726 21.5,31.5C 23.4628,32.9599 25.2962,34.6266 27,36.5C 27.5837,33.7433 27.2504,31.0766 26,28.5C 25.3292,29.2524 24.4959,29.5858 23.5,29.5C 25.667,27.4887 28.3337,26.3221 31.5,26C 34.4816,25.502 37.4816,25.3354 40.5,25.5 Z"/></g>
<g><path style="opacity:1" fill="#4e8d2a" d="M 25.5,37.5 C 25.8333,38.8333 26.1667,40.1667 26.5,41.5C 25.078,40.075 23.4113,39.075 21.5,38.5C 20.7822,36.8632 20.6155,35.1966 21,33.5C 22.3712,35.0414 23.8712,36.3747 25.5,37.5 Z"/></g>
<g><path style="opacity:1" fill="#424240" d="M 31.5,22.5 C 36.6946,22.1795 41.6946,22.5128 46.5,23.5C 46.5,23.8333 46.5,24.1667 46.5,24.5C 44.5853,24.2155 42.9187,24.5489 41.5,25.5C 41.1667,25.5 40.8333,25.5 40.5,25.5C 37.4816,25.3354 34.4816,25.502 31.5,26C 28.3337,26.3221 25.667,27.4887 23.5,29.5C 22.8333,30.1667 22.1667,30.8333 21.5,31.5C 19.7935,32.8726 18.4602,34.5393 17.5,36.5C 15.6693,35.9478 14.0026,35.9478 12.5,36.5C 13.8569,38.1856 15.1902,39.8523 16.5,41.5C 16.5614,43.5922 17.5614,45.0922 19.5,46C 15.9748,46.1787 12.6414,46.6787 9.5,47.5C 1.0868,48.7829 0.753468,50.4496 8.5,52.5C 9.95161,53.3019 11.6183,53.8019 13.5,54C 12.4464,55.3876 12.2797,56.8876 13,58.5C 13.3826,57.944 13.8826,57.6107 14.5,57.5C 14.5,58.1667 14.5,58.8333 14.5,59.5C 15.6687,60.8303 15.6687,62.8303 14.5,65.5C 15.1667,65.8333 15.8333,66.1667 16.5,66.5C 15.9094,67.1515 15.2427,67.8182 14.5,68.5C 14.6236,69.1067 14.9569,69.44 15.5,69.5C 16.8083,70.2323 18.1416,71.0656 19.5,72C 18.552,72.4828 17.552,72.6495 16.5,72.5C 16.3668,75.925 17.0335,76.2583 18.5,73.5C 18.3253,75.6208 18.6586,77.6208 19.5,79.5C 17.2417,79.7751 16.9084,80.7751 18.5,82.5C 16.2573,83.4742 13.924,83.8076 11.5,83.5C 12.9187,82.5489 14.5853,82.2155 16.5,82.5C 15.5,78.5 14.5,74.5 13.5,70.5C 11.8561,70.7135 10.3561,70.3802 9,69.5C 8.41173,64.4724 8.5784,59.4724 9.5,54.5C 5.7408,54.1379 2.40747,52.8046 -0.5,50.5C -0.5,49.8333 -0.5,49.1667 -0.5,48.5C 2.869,46.4893 6.53567,45.4893 10.5,45.5C 10.3573,43.7376 10.6906,42.0709 11.5,40.5C 10.1667,38.1667 8.83333,35.8333 7.5,33.5C 9.71753,32.9426 12.0509,32.9426 14.5,33.5C 17.2665,25.6547 22.9331,21.988 31.5,22.5 Z"/></g>
<g><path style="opacity:1" fill="#488629" d="M 33.5,52.5 C 32.3433,47.0557 33.1767,41.7223 36,36.5C 36.4542,42.0212 35.6209,47.3545 33.5,52.5 Z"/></g>
<g><path style="opacity:1" fill="#53972a" d="M 17.5,36.5 C 18.5137,37.6737 19.847,38.3404 21.5,38.5C 22.6253,40.1288 23.9586,41.6288 25.5,43C 23.5,42.3333 21.5,41.6667 19.5,41C 21.3702,43.0396 23.3702,44.8729 25.5,46.5C 26.3029,47.4232 26.4696,48.4232 26,49.5C 22.6675,46.9983 19.5008,44.3316 16.5,41.5C 15.1902,39.8523 13.8569,38.1856 12.5,36.5C 14.0026,35.9478 15.6693,35.9478 17.5,36.5 Z"/></g>
<g><path style="opacity:1" fill="#39582c" d="M 21.5,38.5 C 23.4113,39.075 25.078,40.075 26.5,41.5C 27.0431,41.56 27.3764,41.8933 27.5,42.5C 26.8201,43.8599 26.1534,45.1932 25.5,46.5C 23.3702,44.8729 21.3702,43.0396 19.5,41C 21.5,41.6667 23.5,42.3333 25.5,43C 23.9586,41.6288 22.6253,40.1288 21.5,38.5 Z"/></g>
<g><path style="opacity:1" fill="#dfc353" d="M 43.5,43.5 C 43.5,43.8333 43.5,44.1667 43.5,44.5C 41.847,44.6596 40.5137,45.3263 39.5,46.5C 38.7611,46.631 38.0944,46.4643 37.5,46C 37.9662,44.7012 37.9662,43.2012 37.5,41.5C 39.8583,41.2525 41.8583,41.9192 43.5,43.5 Z"/></g>
<g><path style="opacity:1" fill="#808e4d" d="M 72.5,42.5 C 74.3442,43.2039 74.8442,44.5372 74,46.5C 72.8118,45.4366 72.3118,44.1033 72.5,42.5 Z"/></g>
<g><path style="opacity:0.807" fill="#aaba90" d="M 106.5,42.5 C 111.167,42.5 115.833,42.5 120.5,42.5C 120.5,44.8333 120.5,47.1667 120.5,49.5C 118.167,49.5 115.833,49.5 113.5,49.5C 113.5,50.5 113.5,51.5 113.5,52.5C 118.906,51.7353 120.906,54.0687 119.5,59.5C 117.833,59.5 116.167,59.5 114.5,59.5C 114.665,62.5184 114.498,65.5184 114,68.5C 111.868,69.7797 109.702,69.7797 107.5,68.5C 105.831,59.8362 105.498,51.1696 106.5,42.5 Z"/></g>
<g><path style="opacity:0.81" fill="#aaba90" d="M 129.5,42.5 C 131.833,42.5 134.167,42.5 136.5,42.5C 136.494,51.4912 135.994,60.4912 135,69.5C 133.093,69.5795 131.093,69.2461 129,68.5C 128.345,59.5658 128.512,50.8991 129.5,42.5 Z"/></g>
<g><path style="opacity:0.803" fill="#aaba90" d="M 145.5,42.5 C 150.5,42.5 155.5,42.5 160.5,42.5C 160.5,44.8333 160.5,47.1667 160.5,49.5C 152.46,49.5202 151.96,50.5202 159,52.5C 160.856,57.7345 159.022,60.4012 153.5,60.5C 159.586,60.0806 161.753,62.7473 160,68.5C 155.587,69.6324 151.087,69.7991 146.5,69C 145.516,60.2511 145.183,51.4178 145.5,42.5 Z"/></g>
<g><path style="opacity:0.872" fill="#aaba90" d="M 169.5,42.5 C 171.833,42.5 174.167,42.5 176.5,42.5C 177.32,48.7974 177.653,55.1308 177.5,61.5C 179.5,61.5 181.5,61.5 183.5,61.5C 183.5,63.8333 183.5,66.1667 183.5,68.5C 178.79,68.7505 174.124,69.0839 169.5,69.5C 169.5,60.5 169.5,51.5 169.5,42.5 Z"/></g>
<g><path style="opacity:0.83" fill="#aaba90" d="M 191.5,42.5 C 196.297,42.1211 200.964,42.6211 205.5,44C 210.686,51.7516 210.686,59.4183 205.5,67C 200.964,68.3789 196.297,68.8789 191.5,68.5C 191.5,59.8333 191.5,51.1667 191.5,42.5 Z M 199.5,50.5 C 201.696,53.6472 201.862,56.9806 200,60.5C 199.502,57.1832 199.335,53.8499 199.5,50.5 Z"/></g>
<g><path style="opacity:0.846" fill="#aaba90" d="M 235.5,42.5 C 239.846,42.3343 244.179,42.501 248.5,43C 249.423,45.0408 249.756,47.2075 249.5,49.5C 247.167,49.5 244.833,49.5 242.5,49.5C 242.5,50.5 242.5,51.5 242.5,52.5C 247.906,51.7353 249.906,54.0687 248.5,59.5C 246.5,59.5 244.5,59.5 242.5,59.5C 242.5,62.8333 242.5,66.1667 242.5,69.5C 240.208,69.7564 238.041,69.4231 236,68.5C 234.827,59.8013 234.66,51.1347 235.5,42.5 Z"/></g>
<g><path style="opacity:0.853" fill="#aaba90" d="M 260.5,42.5 C 264.106,42.2108 267.606,42.5442 271,43.5C 272.31,51.8828 273.81,60.2161 275.5,68.5C 273.181,69.167 270.847,69.3336 268.5,69C 266.61,63.2051 264.943,63.2051 263.5,69C 260.901,69.769 258.401,69.6023 256,68.5C 257.675,59.9458 259.175,51.2792 260.5,42.5 Z"/></g>
<g><path style="opacity:0.819" fill="#aaba90" d="M 283.5,42.5 C 287.514,42.3345 291.514,42.5012 295.5,43C 297.002,43.5831 298.335,44.4164 299.5,45.5C 301.236,50.5504 300.57,55.217 297.5,59.5C 298.414,61.6641 299.581,63.6641 301,65.5C 301.749,66.635 301.583,67.635 300.5,68.5C 298.765,69.057 297.098,69.3903 295.5,69.5C 293.854,68.2214 292.687,66.5547 292,64.5C 291.305,69.4189 288.638,70.7523 284,68.5C 283.5,59.8397 283.334,51.1731 283.5,42.5 Z"/></g>
<g><path style="opacity:0.852" fill="#aaba90" d="M 310.5,42.5 C 313.572,42.1826 316.572,42.5159 319.5,43.5C 320.645,46.7481 321.479,50.0815 322,53.5C 322.356,49.8539 323.189,46.3539 324.5,43C 327.429,42.2228 330.263,42.3895 333,43.5C 333.832,52.1858 333.665,60.8525 332.5,69.5C 330.632,69.0539 328.799,68.7205 327,68.5C 326.608,59.3018 325.608,59.3018 324,68.5C 322.667,69.8333 321.333,69.8333 320,68.5C 318.05,61.9359 317.217,62.2692 317.5,69.5C 315.167,69.5 312.833,69.5 310.5,69.5C 309.449,60.3802 309.449,51.3802 310.5,42.5 Z"/></g>
<g><path style="opacity:1" fill="#a1b558" d="M 56.5,43.5 C 56.9382,43.4346 57.2716,43.6012 57.5,44C 56.3353,45.9917 55.002,47.825 53.5,49.5C 52.3832,52.2791 51.2166,52.6124 50,50.5C 49.3333,51.8333 48.6667,53.1667 48,54.5C 47.0924,50.5113 47.759,46.8447 50,43.5C 50.3333,45.5 50.6667,47.5 51,49.5C 52.331,47.0038 54.1644,45.0038 56.5,43.5 Z"/></g>
<g><path style="opacity:0.949" fill="#525749" d="M 60.5,41.5 C 60.5,42.5 60.5,43.5 60.5,44.5C 63.2401,42.9341 65.5734,43.4341 67.5,46C 64.4571,48.9457 65.1238,50.1124 69.5,49.5C 70.6715,50.3446 72.0048,51.0113 73.5,51.5C 72.6868,52.6527 71.6868,52.6527 70.5,51.5C 69.4777,51.8555 68.811,52.5222 68.5,53.5C 68.1949,55.9193 68.1949,58.586 68.5,61.5C 68.0276,59.4687 67.0276,57.8021 65.5,56.5C 65.3285,54.5082 65.9951,52.8415 67.5,51.5C 65.5159,50.2941 63.5159,50.2941 61.5,51.5C 59.6126,49.4476 57.6126,49.1142 55.5,50.5C 54.8333,50.1667 54.1667,49.8333 53.5,49.5C 55.002,47.825 56.3353,45.9917 57.5,44C 57.2716,43.6012 56.9382,43.4346 56.5,43.5C 57.1894,42.2264 58.0228,42.2264 59,43.5C 59.2784,42.5842 59.7784,41.9175 60.5,41.5 Z"/></g>
<g><path style="opacity:1" fill="#639b4a" d="M 80.5,43.5 C 81.525,43.8966 81.6917,44.5632 81,45.5C 79.8455,46.7433 78.5122,47.7433 77,48.5C 76.3333,47.8333 76.3333,47.1667 77,46.5C 78.5185,45.8366 79.6851,44.8366 80.5,43.5 Z"/></g>
<g><path style="opacity:1" fill="#428625" d="M 30.5,33.5 C 31.8333,40.5 31.8333,47.5 30.5,54.5C 29.1667,47.5 29.1667,40.5 30.5,33.5 Z"/></g>
<g><path style="opacity:1" fill="#a4b859" d="M 62.5,45.5 C 64.8075,46.405 64.8075,47.7383 62.5,49.5C 61.7084,48.3002 61.7084,46.9669 62.5,45.5 Z"/></g>
<g><path style="opacity:1" fill="#4b6135" d="M 15.5,48.5 C 17.5,49.1667 19.5,49.8333 21.5,50.5C 17.4862,50.6655 13.4862,50.4988 9.5,50C 11.4357,49.187 13.4357,48.687 15.5,48.5 Z"/></g>
<g><path style="opacity:1" fill="#6dae35" d="M 9.5,47.5 C 12.8499,47.335 16.1832,47.5017 19.5,48C 18.2068,48.49 16.8734,48.6567 15.5,48.5C 13.4357,48.687 11.4357,49.187 9.5,50C 13.4862,50.4988 17.4862,50.6655 21.5,50.5C 22.2389,50.369 22.9056,50.5357 23.5,51C 18.5658,52.1601 13.5658,52.6601 8.5,52.5C 0.753468,50.4496 1.0868,48.7829 9.5,47.5 Z"/></g>
<g><path style="opacity:1" fill="#5c3337" d="M 43.5,44.5 C 45.6977,44.4088 46.0311,45.0755 44.5,46.5C 42.2294,48.2659 40.0627,50.2659 38,52.5C 36.7978,54.6775 36.2978,57.0108 36.5,59.5C 35.8333,58.8333 35.1667,58.1667 34.5,57.5C 35.4478,53.112 37.7812,49.612 41.5,47C 40.9056,46.5357 40.2389,46.369 39.5,46.5C 40.5137,45.3263 41.847,44.6596 43.5,44.5 Z"/></g>
<g><path style="opacity:1" fill="#b62e3c" d="M 39.5,46.5 C 40.2389,46.369 40.9056,46.5357 41.5,47C 37.7812,49.612 35.4478,53.112 34.5,57.5C 33.528,58.7514 32.8614,58.418 32.5,56.5C 32.685,55.4163 33.0183,54.4163 33.5,53.5C 33.5,53.1667 33.5,52.8333 33.5,52.5C 35.8333,50.8333 37.8333,48.8333 39.5,46.5 Z"/></g>
<g><path style="opacity:1" fill="#b12e3b" d="M 44.5,46.5 C 45.6491,46.7911 46.3158,47.6244 46.5,49C 45.7844,51.7923 45.4511,54.6257 45.5,57.5C 44.1266,57.6567 42.7932,57.49 41.5,57C 44.0432,54.6492 43.3765,53.4825 39.5,53.5C 39.366,55.2915 39.6993,56.9582 40.5,58.5C 39.7784,58.9175 39.2784,59.5842 39,60.5C 38.3292,59.7476 37.4959,59.4142 36.5,59.5C 36.2978,57.0108 36.7978,54.6775 38,52.5C 40.0627,50.2659 42.2294,48.2659 44.5,46.5 Z"/></g>
<g><path style="opacity:1" fill="#503536" d="M 42.5,49.5 C 44.3442,50.2039 44.8442,51.5372 44,53.5C 42.8118,52.4366 42.3118,51.1033 42.5,49.5 Z"/></g>
<g><path style="opacity:1" fill="#74c153" d="M 55.5,50.5 C 57.6126,49.1142 59.6126,49.4476 61.5,51.5C 63.5159,50.2941 65.5159,50.2941 67.5,51.5C 65.9951,52.8415 65.3285,54.5082 65.5,56.5C 63.9826,56.4894 62.8159,55.8228 62,54.5C 61.5357,55.0944 61.369,55.7611 61.5,56.5C 60.8501,56.8039 60.1835,57.1373 59.5,57.5C 58.8281,56.0508 58.1614,54.7175 57.5,53.5C 56.209,53.7373 55.209,53.404 54.5,52.5C 56.1054,51.9941 56.4387,51.3274 55.5,50.5 Z"/></g>
<g><path style="opacity:1" fill="#bed761" d="M 73.5,51.5 C 75.6408,51.7493 77.8074,52.0826 80,52.5C 82.1586,55.0806 82.6586,57.7473 81.5,60.5C 79.5214,62.1675 77.188,62.8342 74.5,62.5C 73.8333,62.5 73.5,62.1667 73.5,61.5C 72.6214,58.2988 70.9547,55.6322 68.5,53.5C 68.811,52.5222 69.4777,51.8555 70.5,51.5C 71.6868,52.6527 72.6868,52.6527 73.5,51.5 Z"/></g>
<g><path style="opacity:1" fill="#f1d256" d="M 28.5,61.5 C 26.8958,62.287 26.2291,63.6203 26.5,65.5C 25.5,65.5 24.5,65.5 23.5,65.5C 22.791,64.596 21.791,64.2627 20.5,64.5C 19.0337,63.653 18.2004,62.3197 18,60.5C 17.3457,61.6956 16.8457,61.6956 16.5,60.5C 17.6477,58.8513 18.981,57.3513 20.5,56C 19.8333,55.3333 19.1667,55.3333 18.5,56C 17.2949,57.3756 15.9616,58.5423 14.5,59.5C 14.5,58.8333 14.5,58.1667 14.5,57.5C 18.0812,53.8347 22.4145,52.6681 27.5,54C 30.9662,56.1936 31.2995,58.6936 28.5,61.5 Z"/></g>
<g><path style="opacity:1" fill="#578144" d="M 54.5,52.5 C 55.209,53.404 56.209,53.7373 57.5,53.5C 57.0831,54.1239 56.4164,54.4573 55.5,54.5C 53.582,54.1386 53.2486,53.472 54.5,52.5 Z"/></g>
<g><path style="opacity:1" fill="#444436" d="M 30.5,33.5 C 29.1667,40.5 29.1667,47.5 30.5,54.5C 31.391,53.8902 32.391,53.5569 33.5,53.5C 33.0183,54.4163 32.685,55.4163 32.5,56.5C 32.8614,58.418 33.528,58.7514 34.5,57.5C 35.1667,58.1667 35.8333,58.8333 36.5,59.5C 37.4959,59.4142 38.3292,59.7476 39,60.5C 39.2784,59.5842 39.7784,58.9175 40.5,58.5C 42.1667,58.5 43.8333,58.5 45.5,58.5C 42.8173,59.6695 41.6506,61.6695 42,64.5C 42.3333,63.8333 42.6667,63.1667 43,62.5C 44.6124,62.952 45.6124,64.2853 46,66.5C 46.6689,63.9722 47.5022,63.9722 48.5,66.5C 50.0453,67.4519 51.712,67.7852 53.5,67.5C 54.209,68.404 55.209,68.7373 56.5,68.5C 50.3471,69.6533 44.0137,69.82 37.5,69C 31.2805,68.606 26.6138,67.4394 23.5,65.5C 24.5,65.5 25.5,65.5 26.5,65.5C 26.2291,63.6203 26.8958,62.287 28.5,61.5C 31.2995,58.6936 30.9662,56.1936 27.5,54C 22.4145,52.6681 18.0812,53.8347 14.5,57.5C 13.8826,57.6107 13.3826,57.944 13,58.5C 12.2797,56.8876 12.4464,55.3876 13.5,54C 11.6183,53.8019 9.95161,53.3019 8.5,52.5C 13.5658,52.6601 18.5658,52.1601 23.5,51C 22.9056,50.5357 22.2389,50.369 21.5,50.5C 19.5,49.8333 17.5,49.1667 15.5,48.5C 16.8734,48.6567 18.2068,48.49 19.5,48C 16.1832,47.5017 12.8499,47.335 9.5,47.5C 12.6414,46.6787 15.9748,46.1787 19.5,46C 17.5614,45.0922 16.5614,43.5922 16.5,41.5C 19.5008,44.3316 22.6675,46.9983 26,49.5C 26.4696,48.4232 26.3029,47.4232 25.5,46.5C 26.1534,45.1932 26.8201,43.8599 27.5,42.5C 27.3764,41.8933 27.0431,41.56 26.5,41.5C 26.1667,40.1667 25.8333,38.8333 25.5,37.5C 26.7899,38.0577 27.6232,39.0577 28,40.5C 28.1816,37.7737 28.6816,35.1071 29.5,32.5C 30.1067,32.6236 30.44,32.9569 30.5,33.5 Z"/></g>
<g><path style="opacity:1" fill="#78ca55" d="M 45.5,58.5 C 48.2372,58.4013 50.9039,58.7347 53.5,59.5C 54.7143,62.204 54.7143,64.8707 53.5,67.5C 51.712,67.7852 50.0453,67.4519 48.5,66.5C 47.5022,63.9722 46.6689,63.9722 46,66.5C 45.6124,64.2853 44.6124,62.952 43,62.5C 42.6667,63.1667 42.3333,63.8333 42,64.5C 41.6506,61.6695 42.8173,59.6695 45.5,58.5 Z"/></g>
<g><path style="opacity:1" fill="#a2b658" d="M 68.5,53.5 C 70.9547,55.6322 72.6214,58.2988 73.5,61.5C 72.7784,61.9175 72.2784,62.5842 72,63.5C 71.0266,61.6079 70.3599,59.6079 70,57.5C 69.3131,59.5675 69.4798,61.5675 70.5,63.5C 69.1866,64.2179 68.5199,63.5512 68.5,61.5C 68.1949,58.586 68.1949,55.9193 68.5,53.5 Z"/></g>
<g><path style="opacity:1" fill="#675d39" d="M 20.5,64.5 C 18.5,64.8333 16.5,65.1667 14.5,65.5C 15.6687,62.8303 15.6687,60.8303 14.5,59.5C 15.9616,58.5423 17.2949,57.3756 18.5,56C 19.1667,55.3333 19.8333,55.3333 20.5,56C 18.981,57.3513 17.6477,58.8513 16.5,60.5C 16.8457,61.6956 17.3457,61.6956 18,60.5C 18.2004,62.3197 19.0337,63.653 20.5,64.5 Z"/></g>
<g><path style="opacity:1" fill="#c02c3d" d="M 61.5,56.5 C 64.9574,57.0512 66.6241,59.0512 66.5,62.5C 65.1054,61.1854 64.1054,61.5188 63.5,63.5C 62.5384,65.9856 61.7051,65.9856 61,63.5C 59.6914,65.8912 58.6914,65.8912 58,63.5C 57.586,63.9574 57.086,64.2907 56.5,64.5C 55.9348,62.4565 54.9348,60.7898 53.5,59.5C 52.713,57.8958 51.3797,57.2291 49.5,57.5C 49.2222,55.6536 49.8888,54.3202 51.5,53.5C 53.1789,55.1045 55.1789,55.7711 57.5,55.5C 58.0027,60.3697 59.336,60.7031 61.5,56.5 Z"/></g>
<g><path style="opacity:1" fill="#ed894a" d="M 28.5,61.5 C 30.1026,62.6772 31.436,62.5106 32.5,61C 37.8353,59.8333 40.1686,61.9999 39.5,67.5C 35.4659,67.4955 31.4659,67.1621 27.5,66.5C 27.6287,64.7839 27.962,63.1172 28.5,61.5 Z"/></g>
<g><path style="opacity:1" fill="#423933" d="M 65.5,56.5 C 67.0276,57.8021 68.0276,59.4687 68.5,61.5C 68.5199,63.5512 69.1866,64.2179 70.5,63.5C 69.4798,61.5675 69.3131,59.5675 70,57.5C 70.3599,59.6079 71.0266,61.6079 72,63.5C 72.2784,62.5842 72.7784,61.9175 73.5,61.5C 73.5,62.1667 73.8333,62.5 74.5,62.5C 75.2625,63.2679 76.2625,63.7679 77.5,64C 70.7202,66.6518 63.7202,68.1518 56.5,68.5C 55.209,68.7373 54.209,68.404 53.5,67.5C 54.7143,64.8707 54.7143,62.204 53.5,59.5C 54.9348,60.7898 55.9348,62.4565 56.5,64.5C 57.086,64.2907 57.586,63.9574 58,63.5C 58.6914,65.8912 59.6914,65.8912 61,63.5C 61.7051,65.9856 62.5384,65.9856 63.5,63.5C 64.9689,66.1001 65.9689,65.7668 66.5,62.5C 66.6241,59.0512 64.9574,57.0512 61.5,56.5C 61.369,55.7611 61.5357,55.0944 62,54.5C 62.8159,55.8228 63.9826,56.4894 65.5,56.5 Z"/></g>
<g><path style="opacity:1" fill="#7f2530" d="M 66.5,62.5 C 65.9689,65.7668 64.9689,66.1001 63.5,63.5C 64.1054,61.5188 65.1054,61.1854 66.5,62.5 Z"/></g>
<g><path style="opacity:1" fill="#9b8324" d="M 86.5,64.5 C 86.1788,66.0481 85.1788,66.7148 83.5,66.5C 83.6322,63.9931 84.6322,63.3264 86.5,64.5 Z"/></g>
<g><path style="opacity:1" fill="#ab8f20" d="M 10.5,65.5 C 12.4646,65.9483 12.7979,66.9483 11.5,68.5C 10.6143,67.675 10.281,66.675 10.5,65.5 Z"/></g>
<g><path style="opacity:1" fill="#b89a1e" d="M 82.5,66.5 C 82.2494,70.2488 81.5828,73.9155 80.5,77.5C 79.209,77.2627 78.209,77.596 77.5,78.5C 76.7457,81.091 75.079,82.9243 72.5,84C 66.9629,85.7006 61.2963,86.5339 55.5,86.5C 51.8215,86.9396 48.4882,86.273 45.5,84.5C 46.8609,83.5798 48.8609,83.2464 51.5,83.5C 50.3539,82.2813 49.3539,80.9479 48.5,79.5C 46.8014,80.8146 45.1347,80.8146 43.5,79.5C 43.5,79.1667 43.5,78.8333 43.5,78.5C 44.4728,77.2086 45.4728,77.2086 46.5,78.5C 47.6942,76.4844 47.6942,74.4844 46.5,72.5C 49.1667,72.5 51.8333,72.5 54.5,72.5C 57.0593,72.8016 59.3926,72.4682 61.5,71.5C 68.7028,70.6158 75.7028,68.9491 82.5,66.5 Z"/></g>
<g><path style="opacity:1" fill="#a78d23" d="M 81.5,60.5 C 83.7524,61.9573 83.4191,63.4573 80.5,65C 73.4316,67.934 66.0982,69.934 58.5,71C 59.448,71.4828 60.448,71.6495 61.5,71.5C 59.3926,72.4682 57.0593,72.8016 54.5,72.5C 41.6632,72.2503 28.9965,70.2503 16.5,66.5C 15.8333,66.1667 15.1667,65.8333 14.5,65.5C 16.5,65.1667 18.5,64.8333 20.5,64.5C 21.791,64.2627 22.791,64.596 23.5,65.5C 26.6138,67.4394 31.2805,68.606 37.5,69C 44.0137,69.82 50.3471,69.6533 56.5,68.5C 63.7202,68.1518 70.7202,66.6518 77.5,64C 76.2625,63.7679 75.2625,63.2679 74.5,62.5C 77.188,62.8342 79.5214,62.1675 81.5,60.5 Z"/></g>
<g><path style="opacity:1" fill="#443f30" d="M 16.5,66.5 C 28.9965,70.2503 41.6632,72.2503 54.5,72.5C 51.8333,72.5 49.1667,72.5 46.5,72.5C 42.7273,71.8224 39.894,73.1558 38,76.5C 37.5259,71.373 36.5259,71.373 35,76.5C 34.5172,75.552 34.3505,74.552 34.5,73.5C 31.4261,73.1274 28.4261,72.4608 25.5,71.5C 25.6495,72.552 25.4828,73.552 25,74.5C 24.0914,69.2702 22.9247,69.2702 21.5,74.5C 20.8333,72.8333 20.1667,71.1667 19.5,69.5C 18.0052,68.2947 16.6719,68.2947 15.5,69.5C 14.9569,69.44 14.6236,69.1067 14.5,68.5C 15.2427,67.8182 15.9094,67.1515 16.5,66.5 Z"/></g>
<g><path style="opacity:0.89" fill="#5e5a51" d="M 87.5,63.5 C 88.4027,65.9235 87.5694,67.9235 85,69.5C 84.1856,73.2953 82.6856,76.7953 80.5,80C 82.7078,80.1909 84.7078,80.6909 86.5,81.5C 83.8127,81.6641 81.146,81.4974 78.5,81C 79.8825,79.5391 79.5492,78.7058 77.5,78.5C 78.209,77.596 79.209,77.2627 80.5,77.5C 81.5828,73.9155 82.2494,70.2488 82.5,66.5C 82.8333,66.5 83.1667,66.5 83.5,66.5C 85.1788,66.7148 86.1788,66.0481 86.5,64.5C 87.1667,64.5 87.5,64.1667 87.5,63.5 Z"/></g>
<g><path style="opacity:1" fill="#887427" d="M 18.5,73.5 C 19.29,74.6085 19.79,75.9419 20,77.5C 20.3076,76.6919 20.8076,76.0253 21.5,75.5C 23.0709,76.3094 24.7376,76.6427 26.5,76.5C 26.5,77.8333 26.5,79.1667 26.5,80.5C 23.9179,80.0254 21.9179,80.6921 20.5,82.5C 19.596,81.791 19.2627,80.791 19.5,79.5C 18.6586,77.6208 18.3253,75.6208 18.5,73.5 Z"/></g>
<g><path style="opacity:1" fill="#695c2b" d="M 29.5,79.5 C 28.35,81.2667 29.0167,82.4334 31.5,83C 30.5842,83.2784 29.9175,83.7784 29.5,84.5C 27.5853,84.7845 25.9187,84.4511 24.5,83.5C 25.5,83.5 26.5,83.5 27.5,83.5C 27.1485,80.9272 27.6485,78.5938 29,76.5C 29.4828,77.448 29.6495,78.448 29.5,79.5 Z"/></g>
<g><path style="opacity:1" fill="#6e602b" d="M 43.5,78.5 C 43.5,78.8333 43.5,79.1667 43.5,79.5C 43.5,81.5 43.5,83.5 43.5,85.5C 41.8008,85.6602 40.1341,85.4935 38.5,85C 39.448,84.5172 40.448,84.3505 41.5,84.5C 40.8333,82.5 40.1667,80.5 39.5,78.5C 40.8333,78.5 42.1667,78.5 43.5,78.5 Z"/></g>
<g><path style="opacity:0.999" fill="#373735" d="M 77.5,78.5 C 79.5492,78.7058 79.8825,79.5391 78.5,81C 81.146,81.4974 83.8127,81.6641 86.5,81.5C 86.0825,82.2216 85.4158,82.7216 84.5,83C 92.0326,85.037 91.6993,86.537 83.5,87.5C 78.456,87.1725 73.456,87.5059 68.5,88.5C 72.4454,89.4909 76.4454,89.8242 80.5,89.5C 81.552,89.3505 82.552,89.5172 83.5,90C 81.5273,90.4955 79.5273,90.6621 77.5,90.5C 67.8276,90.3335 58.1609,90.5002 48.5,91C 55.0481,91.8794 54.8814,92.3794 48,92.5C 39.8426,91.8601 31.676,91.3601 23.5,91C 29.1748,90.5359 29.5081,89.8693 24.5,89C 18.8333,88.6667 13.1667,88.3333 7.5,88C 9.78849,87.1779 12.1218,86.5112 14.5,86C 12.8807,85.7645 11.8807,84.9311 11.5,83.5C 13.924,83.8076 16.2573,83.4742 18.5,82.5C 16.9084,80.7751 17.2417,79.7751 19.5,79.5C 19.2627,80.791 19.596,81.791 20.5,82.5C 21.9587,82.4326 23.2921,82.7659 24.5,83.5C 25.9187,84.4511 27.5853,84.7845 29.5,84.5C 29.4184,87.17 30.5851,87.17 33,84.5C 34.0712,87.1125 34.9045,87.1125 35.5,84.5C 36.1667,85.1667 36.8333,85.8333 37.5,86.5C 43.5,87.8333 49.5,87.8333 55.5,86.5C 61.2963,86.5339 66.9629,85.7006 72.5,84C 75.079,82.9243 76.7457,81.091 77.5,78.5 Z"/></g>
<g><path style="opacity:1" fill="#8c7826" d="M 35.5,84.5 C 34.9045,87.1125 34.0712,87.1125 33,84.5C 30.5851,87.17 29.4184,87.17 29.5,84.5C 29.9175,83.7784 30.5842,83.2784 31.5,83C 29.0167,82.4334 28.35,81.2667 29.5,79.5C 31.3059,76.6618 32.3059,76.9952 32.5,80.5C 40.474,81.0155 40.474,81.8488 32.5,83C 33.5266,83.5133 34.5266,84.0133 35.5,84.5 Z"/></g>
<g><path style="opacity:1" fill="#a58b23" d="M 46.5,72.5 C 47.6942,74.4844 47.6942,76.4844 46.5,78.5C 45.4728,77.2086 44.4728,77.2086 43.5,78.5C 42.1667,78.5 40.8333,78.5 39.5,78.5C 40.1667,80.5 40.8333,82.5 41.5,84.5C 40.448,84.3505 39.448,84.5172 38.5,85C 40.1341,85.4935 41.8008,85.6602 43.5,85.5C 43.5,83.5 43.5,81.5 43.5,79.5C 45.1347,80.8146 46.8014,80.8146 48.5,79.5C 49.3539,80.9479 50.3539,82.2813 51.5,83.5C 48.8609,83.2464 46.8609,83.5798 45.5,84.5C 43.3647,86.369 40.6981,87.0356 37.5,86.5C 36.8333,85.8333 36.1667,85.1667 35.5,84.5C 34.5266,84.0133 33.5266,83.5133 32.5,83C 40.474,81.8488 40.474,81.0155 32.5,80.5C 32.3059,76.9952 31.3059,76.6618 29.5,79.5C 29.6495,78.448 29.4828,77.448 29,76.5C 27.6485,78.5938 27.1485,80.9272 27.5,83.5C 26.5,83.5 25.5,83.5 24.5,83.5C 23.2921,82.7659 21.9587,82.4326 20.5,82.5C 21.9179,80.6921 23.9179,80.0254 26.5,80.5C 26.5,79.1667 26.5,77.8333 26.5,76.5C 24.7376,76.6427 23.0709,76.3094 21.5,75.5C 20.8076,76.0253 20.3076,76.6919 20,77.5C 19.79,75.9419 19.29,74.6085 18.5,73.5C 17.0335,76.2583 16.3668,75.925 16.5,72.5C 17.552,72.6495 18.552,72.4828 19.5,72C 18.1416,71.0656 16.8083,70.2323 15.5,69.5C 16.6719,68.2947 18.0052,68.2947 19.5,69.5C 20.1667,71.1667 20.8333,72.8333 21.5,74.5C 22.9247,69.2702 24.0914,69.2702 25,74.5C 25.4828,73.552 25.6495,72.552 25.5,71.5C 28.4261,72.4608 31.4261,73.1274 34.5,73.5C 34.3505,74.552 34.5172,75.552 35,76.5C 36.5259,71.373 37.5259,71.373 38,76.5C 39.894,73.1558 42.7273,71.8224 46.5,72.5 Z"/></g>
<g><path style="opacity:1" fill="#867326" d="M 45.5,84.5 C 48.4882,86.273 51.8215,86.9396 55.5,86.5C 49.5,87.8333 43.5,87.8333 37.5,86.5C 40.6981,87.0356 43.3647,86.369 45.5,84.5 Z"/></g>
<g><path style="opacity:0.275" fill="#5e5e5e" d="M 86.5,81.5 C 89.723,83.4028 93.723,85.0694 98.5,86.5C 93.544,87.4941 88.544,87.8275 83.5,87.5C 91.6993,86.537 92.0326,85.037 84.5,83C 85.4158,82.7216 86.0825,82.2216 86.5,81.5 Z"/></g>
<g><path style="opacity:0.61" fill="#5a5a5a" d="M 83.5,87.5 C 82.5,88.1667 81.5,88.8333 80.5,89.5C 76.4454,89.8242 72.4454,89.4909 68.5,88.5C 73.456,87.5059 78.456,87.1725 83.5,87.5 Z"/></g>
<g><path style="opacity:0.635" fill="#606060" d="M 11.5,83.5 C 11.8807,84.9311 12.8807,85.7645 14.5,86C 12.1218,86.5112 9.78849,87.1779 7.5,88C 13.1667,88.3333 18.8333,88.6667 24.5,89C 29.5081,89.8693 29.1748,90.5359 23.5,91C 31.676,91.3601 39.8426,91.8601 48,92.5C 54.8814,92.3794 55.0481,91.8794 48.5,91C 58.1609,90.5002 67.8276,90.3335 77.5,90.5C 67.1772,91.187 57.5106,92.187 48.5,93.5C 38.8296,93.0739 29.1629,92.5739 19.5,92C 18.3659,90.984 18.6992,90.3173 20.5,90C 15.4671,89.829 10.4671,89.329 5.5,88.5C 8.43894,87.1589 10.4389,85.4922 11.5,83.5 Z"/></g>
</svg>
